<svg width="48" height="48" viewBox="0 0 48 48" fill="none" xmlns="http://www.w3.org/2000/svg">
<path fill-rule="evenodd" clip-rule="evenodd" d="M24 0C10.7452 0 0 10.7452 0 24C0 37.2548 10.7452 48 24 48C37.2548 48 48 37.2548 48 24C48 10.7452 37.2548 0 24 0ZM18.7233 11.2783C20.0886 11.2162 20.5249 11.201 24.0012 11.201H23.9972C27.4746 11.201 27.9092 11.2162 29.2746 11.2783C30.6373 11.3407 31.5679 11.5564 32.3839 11.873C33.2266 12.1996 33.9386 12.637 34.6506 13.349C35.3626 14.0605 35.8 14.7746 36.128 15.6165C36.4427 16.4304 36.6587 17.3605 36.7227 18.7232C36.784 20.0885 36.8 20.5248 36.8 24.0011C36.8 27.4774 36.784 27.9126 36.7227 29.278C36.6587 30.6401 36.4427 31.5705 36.128 32.3847C35.8 33.2263 35.3626 33.9404 34.6506 34.6519C33.9394 35.3639 33.2264 35.8023 32.3848 36.1292C31.5703 36.4458 30.6391 36.6615 29.2764 36.7239C27.9111 36.786 27.4762 36.8012 23.9996 36.8012C20.5236 36.8012 20.0876 36.786 18.7222 36.7239C17.3598 36.6615 16.4294 36.4458 15.615 36.1292C14.7736 35.8023 14.0595 35.3639 13.3483 34.6519C12.6365 33.9404 12.1992 33.2263 11.872 32.3844C11.5557 31.5705 11.34 30.6404 11.2773 29.2777C11.2155 27.9123 11.2 27.4774 11.2 24.0011C11.2 20.5248 11.216 20.0883 11.2771 18.7229C11.3384 17.3608 11.5544 16.4304 11.8717 15.6162C12.1997 14.7746 12.6371 14.0605 13.3491 13.349C14.0606 12.6372 14.7747 12.1999 15.6166 11.873C16.4304 11.5564 17.3606 11.3407 18.7233 11.2783Z" fill="white"/>
<path fill-rule="evenodd" clip-rule="evenodd" d="M22.853 13.5061C23.0759 13.5058 23.3158 13.5059 23.5746 13.506L24.0013 13.5061C27.4189 13.5061 27.824 13.5184 29.1736 13.5797C30.4216 13.6368 31.0989 13.8453 31.5501 14.0205C32.1475 14.2525 32.5733 14.5299 33.0211 14.9779C33.4691 15.4259 33.7464 15.8526 33.979 16.4499C34.1542 16.9006 34.363 17.5779 34.4198 18.8259C34.4811 20.1753 34.4944 20.5806 34.4944 23.9966C34.4944 27.4127 34.4811 27.818 34.4198 29.1674C34.3627 30.4154 34.1542 31.0927 33.979 31.5434C33.747 32.1407 33.4691 32.5661 33.0211 33.0138C32.5731 33.4618 32.1477 33.7391 31.5501 33.9711C31.0995 34.1471 30.4216 34.3552 29.1736 34.4122C27.8242 34.4736 27.4189 34.4869 24.0013 34.4869C20.5834 34.4869 20.1783 34.4736 18.8289 34.4122C17.5809 34.3546 16.9036 34.1461 16.4521 33.9709C15.8548 33.7389 15.4281 33.4615 14.9801 33.0135C14.5321 32.5655 14.2548 32.1399 14.0222 31.5423C13.847 31.0917 13.6382 30.4143 13.5814 29.1663C13.5201 27.8169 13.5078 27.4116 13.5078 23.9934C13.5078 20.5753 13.5201 20.1721 13.5814 18.8227C13.6385 17.5747 13.847 16.8974 14.0222 16.4462C14.2542 15.8488 14.5321 15.4221 14.9801 14.9741C15.4281 14.5261 15.8548 14.2488 16.4521 14.0163C16.9033 13.8403 17.5809 13.6323 18.8289 13.5749C20.0097 13.5216 20.4674 13.5056 22.853 13.5029V13.5061ZM30.8339 15.6305C29.9858 15.6305 29.2978 16.3177 29.2978 17.166C29.2978 18.014 29.9858 18.702 30.8339 18.702C31.6819 18.702 32.3699 18.014 32.3699 17.166C32.3699 16.318 31.6819 15.63 30.8339 15.63V15.6305ZM17.4279 23.9991C17.4279 20.369 20.3709 17.4258 24.001 17.4257C27.6312 17.4257 30.5736 20.3689 30.5736 23.9991C30.5736 27.6293 27.6314 30.5711 24.0013 30.5711C20.3711 30.5711 17.4279 27.6293 17.4279 23.9991Z" fill="white"/>
<path d="M24.0011 19.7324C26.3574 19.7324 28.2678 21.6426 28.2678 23.9991C28.2678 26.3554 26.3574 28.2658 24.0011 28.2658C21.6445 28.2658 19.7344 26.3554 19.7344 23.9991C19.7344 21.6426 21.6445 19.7324 24.0011 19.7324Z" fill="white"/>
</svg>
