<svg width="52" height="42" viewBox="0 0 52 42" fill="none" xmlns="http://www.w3.org/2000/svg">
<g clip-path="url(#clip0_657:1088)">
<path d="M51.7313 6.90636C51.4332 6.35148 51.0192 5.86745 50.5174 5.48724C49.431 4.6639 48.0767 3.99041 46.2679 3.37059C45.1459 2.98579 44.0028 2.66579 42.8442 2.41218C40.8215 1.97623 38.7682 1.69787 36.7026 1.57958C35.8158 1.52407 34.9104 1.48152 34.0383 1.45191H33.9663C33.3972 1.42601 32.8817 1.41861 32.3828 1.41121C30.4899 1.44139 28.6029 1.19202 26.7826 0.671121C26.2283 0.523103 25.6593 0.399138 25.0865 0.301077C23.7063 0.0716495 22.6846 -0.044911 21.5501 0.0327982C21.0186 0.0741476 20.4918 0.162688 19.9759 0.297378C18.7783 0.59854 17.6493 1.12674 16.6502 1.85341C15.2015 2.94409 13.8535 4.16272 12.6223 5.49465C10.7488 7.47253 9.0379 8.15156 7.53022 8.76768C6.96003 8.98424 6.40185 9.23129 5.85811 9.50777C4.64416 9.99819 3.53809 10.7223 2.60257 11.6392C0.929456 13.333 -0.00620069 15.621 3.09292e-05 18.0035C0.00626255 20.3859 0.953875 22.669 2.63582 24.3539C4.2987 26.0191 6.62118 26.9276 9.33722 26.9813H9.64208C11.0158 26.9674 12.3831 26.7923 13.7161 26.4595C16.4229 25.8064 18.2077 25.564 20.1311 25.6602C19.906 25.9689 19.6975 26.2894 19.5066 26.6205C16.774 30.5522 16.9587 35.4682 19.9722 38.8634C21.6203 40.7162 23.9349 41.8388 26.4084 41.9848C28.8819 42.1308 31.3122 41.2884 33.1662 39.6423C35.6162 37.4627 36.5234 34.8724 36.189 30.9944C36.189 30.9479 36.1853 30.9015 36.1779 30.8556C36.0487 29.9691 35.9839 29.0743 35.9839 28.1783C35.9772 24.366 37.1721 20.6488 39.3983 17.5562C39.4107 17.5405 39.4218 17.5238 39.4316 17.5063L39.5739 17.2824C39.6441 17.1991 39.7124 17.1177 39.79 17.0289L39.8214 16.9901C42.3053 13.8016 45.7722 11.5249 49.6823 10.5143L49.7525 10.4939L50.5729 10.2109L50.6412 10.185C50.9288 10.0533 51.186 9.86361 51.3968 9.62768C51.6076 9.39174 51.7674 9.11469 51.8662 8.81394C51.9765 8.50389 52.0214 8.17432 51.9982 7.84601C51.975 7.5177 51.8841 7.19776 51.7313 6.90636ZM34.382 31.0425C34.382 31.0573 34.382 31.0739 34.382 31.0887C34.6832 34.4543 34.0125 36.4729 31.9671 38.2879C30.4727 39.6166 28.5127 40.2967 26.5177 40.1788C24.5228 40.0608 22.6563 39.1544 21.3284 37.6589C18.8747 34.8928 18.7417 30.8612 21.018 27.6251C21.0357 27.601 21.0518 27.5756 21.066 27.5493C21.4068 26.9548 21.8073 26.3969 22.2615 25.8841L22.5552 25.9285L22.7197 25.9562C23.5862 26.095 25.5078 26.3855 26.4907 26.4613L26.6127 26.4706H26.6921C28.4344 26.5723 29.907 26.3799 31.0692 25.8896C31.2391 25.8175 31.4054 25.7398 31.5699 25.6583C31.6253 25.6324 31.6789 25.601 31.7343 25.5732C31.8415 25.5159 31.9505 25.4604 32.0558 25.4012L32.2406 25.2883L32.5233 25.1162L32.7173 24.9867C32.8041 24.9275 32.8928 24.8683 32.9778 24.8017L33.1736 24.6611L33.4194 24.4761L33.6041 24.3225C33.6836 24.2596 33.7612 24.1948 33.8388 24.1375L34.0235 23.9728L34.2434 23.7767L34.4282 23.5916L34.6314 23.4066L34.7423 23.2993C34.3458 24.8952 34.146 26.5338 34.1473 28.1783C34.1581 29.1374 34.2365 30.0945 34.382 31.0425ZM50.1516 8.21262C50.1157 8.33134 50.0383 8.43314 49.9336 8.4994L49.1908 8.76768C44.9135 9.88196 41.1215 12.3755 38.4006 15.8633C38.3101 15.9669 38.2288 16.0668 38.1456 16.1649L38.1364 16.1741C38.0071 16.3295 37.8851 16.4794 37.7669 16.6256L37.7465 16.6496C37.4158 17.0733 37.1165 17.5137 36.8227 17.9448C36.5289 18.3759 36.2093 18.8495 35.8564 19.2954L35.5719 19.6525C35.4555 19.7968 35.3391 19.943 35.219 20.0873C35.0712 20.2724 34.9215 20.4481 34.7681 20.6257C34.43 21.0217 34.079 21.4121 33.7131 21.7877C32.7136 22.8072 31.6013 23.7027 30.3523 24.2318C29.4654 24.6019 28.2922 24.7536 26.8713 24.6777H26.7161C26.3041 24.6518 25.5983 24.5649 24.8685 24.4613C24.1387 24.3576 23.3682 24.2429 22.8361 24.156C22.5793 24.1134 22.328 24.0764 22.0822 24.0431L22.0231 24.0339C19.1445 23.6453 16.9624 23.8266 13.2967 24.711C12.0126 25.0297 10.6934 25.1845 9.37047 25.1717C7.80737 25.1403 5.59205 24.7517 3.91069 23.0736C2.56751 21.728 1.81067 19.9049 1.80548 18.0023C1.80028 16.0998 2.54716 14.2725 3.88298 12.9196C4.66525 12.1615 5.58872 11.5649 6.60086 11.1637L6.65259 11.1397L6.68585 11.123C7.17834 10.8742 7.68343 10.6513 8.19907 10.4551C9.79728 9.81491 11.7872 9.01746 13.9268 6.75464C15.0815 5.50406 16.3453 4.35916 17.7033 3.33359C18.5154 2.74396 19.4321 2.31447 20.4046 2.06804C20.8156 1.95993 21.2355 1.88873 21.6591 1.85527C22.6181 1.78866 23.5252 1.89597 24.7724 2.10319C25.2879 2.1883 25.7997 2.29932 26.2949 2.43253C28.2648 2.98782 30.3052 3.25211 32.3514 3.21703C32.8318 3.21703 33.327 3.22998 33.8739 3.25403H33.9404C34.8236 3.28364 35.7123 3.32619 36.5825 3.37985C38.5541 3.49365 40.5141 3.75901 42.4451 4.17359C43.5396 4.41642 44.6197 4.72033 45.6803 5.0839C47.3118 5.63896 48.5035 6.23103 49.4329 6.93412C49.7264 7.15855 49.9689 7.443 50.1442 7.76857C50.2051 7.90981 50.2078 8.06943 50.1516 8.21262Z" fill="white"/>
<path d="M7.66286 14.0212C6.89021 14.3865 6.24311 14.9731 5.8034 15.7068C5.36369 16.4404 5.15112 17.2882 5.19259 18.1428C5.23406 18.9974 5.52769 19.8206 6.03636 20.5081C6.54502 21.1956 7.24587 21.7166 8.05025 22.0052C8.85463 22.2938 9.72641 22.337 10.5553 22.1294C11.3843 21.9219 12.1331 21.4728 12.7071 20.8389C13.2811 20.2051 13.6545 19.4151 13.7801 18.5688C13.9057 17.7224 13.7779 16.8578 13.4127 16.0842C13.1705 15.5706 12.8297 15.1098 12.4096 14.7281C11.9896 14.3465 11.4985 14.0514 10.9646 13.8598C10.4306 13.6683 9.86421 13.5839 9.29769 13.6116C8.73117 13.6393 8.17565 13.7785 7.66286 14.0212ZM10.5766 20.1769C10.1332 20.3866 9.63766 20.46 9.15263 20.3878C8.66759 20.3155 8.21483 20.1009 7.85161 19.771C7.48839 19.4411 7.23101 19.0107 7.11202 18.5343C6.99303 18.0579 7.01776 17.5569 7.1831 17.0946C7.34844 16.6323 7.64696 16.2295 8.04091 15.9371C8.43486 15.6446 8.90655 15.4758 9.39634 15.4518C9.88613 15.4278 10.372 15.5498 10.7926 15.8023C11.2131 16.0548 11.5495 16.4266 11.7591 16.8705C12.0397 17.4661 12.0728 18.1488 11.8511 18.7687C11.6293 19.3887 11.171 19.8952 10.5766 20.1769Z" fill="white"/>
</g>
<defs>
<clipPath id="clip0_657:1088">
<rect width="52" height="42" fill="white"/>
</clipPath>
</defs>
</svg>
