<svg width="46" height="201" viewBox="0 0 46 201" fill="none" xmlns="http://www.w3.org/2000/svg">
<path d="M29.0475 167.147C20.078 167.147 12.6088 160.351 12.6088 150.81C12.6088 141.269 20.0644 134.353 29.0475 134.353C38.0932 134.353 45.489 141.271 45.489 150.81C45.489 160.348 38.0932 167.147 29.0475 167.147ZM5.28906 142.205L8.95571 142.205L8.95571 158.818L5.28906 158.818L5.28906 142.205ZM29.0475 156.474C39.9877 156.474 44.448 154.506 44.448 150.81C44.448 147.055 39.9877 145.087 29.0475 145.087C18.1074 145.087 13.6471 147.055 13.6471 150.81C13.6471 154.506 18.1101 156.474 29.0475 156.474Z" fill="white"/>
<path d="M40.5361 64.5315C42.7183 65.4666 45.4907 68.0451 45.4907 72.4365C45.4907 77.7082 42.3039 79.7581 38.826 79.6982C41.8344 80.6358 45.4907 83.2118 45.4907 88.8924C45.4907 94.5158 41.538 97.3262 38.1178 97.3262C30.8052 97.3262 27.7968 89.0696 27.6787 79.7581L24.429 79.7581C18.4121 79.7581 15.1099 81.5813 15.1099 85.7903C15.1099 87.9574 16.2902 89.304 18.1184 89.304C19.8862 89.304 20.479 87.1942 22.7766 87.1942C25.0742 87.1942 26.7896 89.304 26.7896 91.5882C26.7896 93.9324 25.1372 96.214 22.0684 96.214C17.822 96.214 13.7539 90.5333 13.7539 83.329C13.7539 76.5961 16.8804 70.2695 25.2526 70.2695C28.4971 70.2695 34.3959 70.3867 38.2279 70.3867C40.5282 70.3867 41.7085 69.2745 41.7085 67.6336C41.7085 66.6386 41.1183 65.701 39.9984 65.1175L40.5361 64.5315ZM36.2319 87.1369C39.2981 87.1369 40.9531 85.6132 40.9531 83.6806C40.9531 81.0473 38.4194 79.8154 34.9966 79.8154L28.6833 79.8154C29.3889 84.5584 32.3973 87.1369 36.2319 87.1369Z" fill="white"/>
<path d="M29.621 32.7949C20.9633 32.7949 13.7539 25.9978 13.7539 16.4586C13.7539 6.91933 20.9502 0.000251455 29.621 0.000251076C38.3521 0.000250695 45.4907 6.91667 45.4907 16.4586C45.4907 26.0005 38.3521 32.7949 29.621 32.7949ZM29.621 22.1233C40.1807 22.1233 44.4859 20.1555 44.4859 16.4586C44.4859 12.7007 40.1807 10.7329 29.621 10.7329C19.0613 10.7329 14.7561 12.7007 14.7561 16.4586C14.7561 20.1555 19.0639 22.1233 29.621 22.1233Z" fill="white"/>
<path d="M34.234 171.947L22.7316 179.327L21.0607 177.203C17.5387 172.596 15.5708 168.817 14.974 166.337L14.0193 166.337L14.0193 181.513L14.974 181.513C15.0324 176.494 17.3 174.899 21.7132 180.155L27.8555 187.419L20.0423 187.419C11.9029 187.419 4.67574 187.193 -6.11202e-07 187.017L-4.36245e-08 200.002L0 201L0.954774 201C0.954774 197.457 2.44528 196.984 5.665 196.984L38.8169 196.984C41.9783 196.984 43.5271 198.46 43.5271 201L44.4209 201L44.4209 183.403L43.5271 183.403C43.5271 185.943 41.9783 187.419 38.8169 187.419L29.3461 187.419L28.7493 186.652C35.6661 182.518 44.4315 177.439 44.4315 177.439L44.4315 163.974L43.5377 163.974C43.36 166.574 39.7823 168.462 34.234 171.947Z" fill="white"/>
<path d="M34.234 105.303L22.7316 112.68L21.0607 110.555C17.5387 105.949 15.5708 102.169 14.974 99.69L14.0193 99.69L14.0193 114.865L14.974 114.865C15.0324 109.846 17.3 108.252 21.7132 113.507L27.8555 120.772L20.0423 120.772C11.9029 120.772 4.67574 120.546 -6.11202e-07 120.37L-4.36244e-08 133.355L0 134.353L0.954774 134.353C0.954774 130.81 2.44528 130.337 5.665 130.337L38.8169 130.337C41.9783 130.337 43.5271 131.813 43.5271 134.353L44.4209 134.353L44.4209 116.756L43.5271 116.756C43.5271 119.296 41.9783 120.772 38.8169 120.772L29.3461 120.772L28.7493 120.005C35.6661 115.871 44.4315 110.792 44.4315 110.792L44.4315 97.3263L43.5377 97.3263C43.36 99.9264 39.7823 101.815 34.234 105.3" fill="white"/>
<path d="M34.234 37.5922L22.7316 44.9748L21.0607 42.8475C17.5387 38.2409 15.5708 34.4616 14.974 31.9823L14.0193 31.9823L14.0193 47.16L14.974 47.16C15.0404 42.1384 17.3 40.5468 21.7132 45.7995L27.8555 53.0614L20.0423 53.0614C11.9029 53.0614 4.67574 52.8355 -6.11432e-07 52.6595L-4.37393e-08 65.6468L0 66.6475L0.954774 66.6475C0.954774 63.1019 2.44528 62.6318 5.665 62.6318L38.8169 62.6318C40.4082 62.6318 41.8536 63.01 42.636 63.7112C43.0105 64.0884 43.3069 64.5345 43.5085 65.0244L44.4182 65.0244L44.4182 49.0588L43.5245 49.0588C43.5245 51.5985 41.9756 53.0745 38.8142 53.0745L29.3461 53.0745L28.7493 52.3076C35.6661 48.1737 44.4315 43.0944 44.4315 43.0944L44.4315 29.6212L43.5377 29.6212C43.36 32.2187 39.7823 34.1096 34.234 37.5922Z" fill="white"/>
</svg>
