<svg width="104" height="23" viewBox="0 0 104 23" fill="none" xmlns="http://www.w3.org/2000/svg">
  <g clip-path="url(#clip0)">
  <path d="M17.6519 14.8163C17.6519 10.3519 21.121 6.63422 25.9912 6.63422C30.8613 6.63422 34.3914 10.3451 34.3914 14.8163C34.3914 19.3187 30.86 22.9998 25.9912 22.9998C21.1224 22.9998 17.6519 19.3187 17.6519 14.8163ZM30.3835 2.99097V4.81598H21.9034V2.99097H30.3835ZM23.1 14.8163C23.1 20.2616 24.1043 22.4816 25.9912 22.4816C27.9078 22.4816 28.9122 20.2616 28.9122 14.8163C28.9122 9.37106 27.9078 7.15102 25.9912 7.15102C24.1043 7.15102 23.1 9.37241 23.1 14.8163Z" fill="#006EB6"/>
  <path d="M70.5696 20.4444C70.0837 21.57 68.7437 23 66.4615 23C63.7219 23 62.6567 21.3563 62.6878 19.5624C62.2005 21.1141 60.8618 23 57.9097 23C54.9874 23 53.5269 20.9612 53.5269 19.1971C53.5269 15.4253 57.8177 13.8736 62.6567 13.8127V12.1365C62.6567 9.03305 61.7092 7.3298 59.5218 7.3298C58.3956 7.3298 57.6958 7.93859 57.6958 8.88153C57.6958 9.79336 58.7922 10.0991 58.7922 11.2842C58.7922 12.4693 57.6958 13.3541 56.5088 13.3541C55.2906 13.3541 54.1048 12.5018 54.1048 10.9189C54.1048 8.72866 57.057 6.63037 60.8009 6.63037C64.2999 6.63037 67.5877 8.24298 67.5877 12.5613C67.5877 14.2348 67.5268 17.2774 67.5268 19.2539C67.5268 20.4404 68.1048 21.0492 68.9575 21.0492C69.4746 21.0492 69.9619 20.7448 70.2651 20.1671L70.5696 20.4444ZM58.822 18.2244C58.822 19.8059 59.6138 20.6595 60.6182 20.6595C61.9867 20.6595 62.6269 19.3527 62.6269 17.5872V14.3309C60.162 14.6948 58.822 16.2465 58.822 18.2244Z" fill="#006EB6"/>
  <path d="M87.2603 14.8164C87.2603 10.3519 90.7294 6.63428 95.5982 6.63428C100.467 6.63428 103.998 10.3452 103.998 14.8164C103.998 19.3187 100.468 22.9998 95.5982 22.9998C90.7281 22.9998 87.2603 19.3187 87.2603 14.8164ZM92.707 14.8164C92.707 20.2616 93.7113 22.4817 95.5982 22.4817C97.5162 22.4817 98.5206 20.2616 98.5206 14.8164C98.5206 9.37112 97.5162 7.15107 95.5982 7.15107C93.7113 7.15107 92.707 9.37247 92.707 14.8164Z" fill="#006EB6"/>
  <path d="M14.9732 17.4627L11.1696 11.5954L12.2647 10.7431C14.6388 8.94647 16.5866 7.94265 17.8644 7.63826V7.15123H10.0435V7.63826C12.6301 7.66802 13.4518 8.82472 10.7433 11.0759L6.9993 14.2091V10.2236C6.9993 6.07164 7.1157 2.3851 7.20639 0H0.514356H0V0.48703C1.82596 0.48703 2.0696 1.24734 2.0696 2.88971V19.8005C2.0696 21.4131 1.3089 22.2032 0 22.2032V22.6591H9.0689V22.2032C7.76 22.2032 6.9993 21.4131 6.9993 19.8005V14.9694L7.39454 14.665C9.52505 18.1933 12.1429 22.6645 12.1429 22.6645H19.0826V22.2086C17.7426 22.1179 16.7693 20.2929 14.9732 17.4627Z" fill="#006EB6"/>
  <path d="M49.4161 17.4627L45.614 11.5954L46.709 10.7431C49.0832 8.94647 51.0309 7.94265 52.3087 7.63826V7.15123H44.4878V7.63826C47.0745 7.66802 47.8961 8.82472 45.1876 11.0759L41.4436 14.2091V10.2236C41.4436 6.07164 41.56 2.3851 41.6507 0H34.9587H34.4443V0.48703C36.2703 0.48703 36.5139 1.24734 36.5139 2.88971V19.8005C36.5139 21.4131 35.7532 22.2032 34.4443 22.2032V22.6591H43.5132V22.2032C42.2043 22.2032 41.4436 21.4131 41.4436 19.8005V14.9694L41.8389 14.665C43.9694 18.1933 46.5872 22.6645 46.5872 22.6645H53.5269V22.2086C52.1869 22.1179 51.2137 20.2929 49.4175 17.4627" fill="#006EB6"/>
  <path d="M84.6425 17.4627L80.8376 11.5954L81.934 10.7431C84.3081 8.94647 86.2559 7.94265 87.5337 7.63826V7.15123H79.7114V7.63826C82.2995 7.67208 83.1197 8.82472 80.4126 11.0759L76.67 14.2091V10.2236C76.67 6.07164 76.7864 2.3851 76.8771 0H70.1837H69.668V0.48703C71.4953 0.48703 71.7376 1.24734 71.7376 2.88971V19.8005C71.7376 20.6122 71.5427 21.3495 71.1813 21.7486C70.9868 21.9396 70.7569 22.0908 70.5045 22.1937V22.6577H78.7328V22.2018C77.4239 22.2018 76.6632 21.4117 76.6632 19.7991V14.9694L77.0584 14.665C79.189 18.1933 81.8068 22.6645 81.8068 22.6645H88.7505V22.2086C87.4119 22.1179 86.4373 20.2929 84.6425 17.4627Z" fill="#006EB6"/>
  </g>
  <defs>
  <clipPath id="clip0">
  <rect width="104" height="23" fill="white"/>
  </clipPath>
  </defs>
  </svg>
  