<svg width="49" height="48" viewBox="0 0 49 48" fill="none" xmlns="http://www.w3.org/2000/svg">
<path fill-rule="evenodd" clip-rule="evenodd" d="M24.9665 0C11.7188 0 0.979492 10.7393 0.979492 23.987C0.979492 37.2346 11.7188 47.9739 24.9665 47.9739C38.2141 47.9739 48.9534 37.2346 48.9534 23.987C48.9534 10.7393 38.2141 0 24.9665 0ZM24.2984 20.3264L24.248 19.4964C24.097 17.3452 25.4225 15.3803 27.5198 14.618C28.2916 14.347 29.6004 14.3131 30.4561 14.5503C30.7916 14.6519 31.4292 14.9907 31.8822 15.2956L32.7044 15.8545L33.6104 15.5666C34.1137 15.4141 34.7849 15.1601 35.0869 14.9907C35.3721 14.8382 35.6238 14.7535 35.6238 14.8043C35.6238 15.0923 35.003 16.0747 34.4829 16.6168C33.7782 17.379 33.9795 17.4468 35.4057 16.9386C36.2614 16.6507 36.2781 16.6507 36.1104 16.9725C36.0097 17.1419 35.4896 17.7348 34.9359 18.2768C33.9963 19.2084 33.946 19.3101 33.946 20.0893C33.946 21.2919 33.3755 23.7989 32.805 25.1709C31.748 27.7456 29.4829 30.405 27.2178 31.7432C24.0299 33.6234 19.785 34.0977 16.2112 32.9967C15.0199 32.624 12.973 31.6754 12.973 31.506C12.973 31.4552 13.5938 31.3875 14.3488 31.3705C15.926 31.3366 17.5031 30.8962 18.8454 30.117L19.7514 29.575L18.7112 29.2193C17.2347 28.7111 15.9092 27.5423 15.5736 26.4413C15.473 26.0856 15.5065 26.0687 16.4461 26.0687L17.4192 26.0517L16.5971 25.6621C15.624 25.1709 14.7347 24.3409 14.2985 23.494C13.9797 22.8842 13.577 21.3427 13.6944 21.2242C13.728 21.1733 14.0803 21.275 14.483 21.4105C15.6407 21.834 15.7917 21.7323 15.1206 21.0209C13.8622 19.7335 13.4763 17.8195 14.0803 16.007L14.3656 15.1939L15.473 16.295C17.738 18.5139 20.4058 19.8352 23.4595 20.2248L24.2984 20.3264Z" fill="white"/>
</svg>
